<svg width="49" height="26" viewBox="0 0 49 26" fill="none" xmlns="http://www.w3.org/2000/svg">
<rect width="49" height="26" rx="4" fill="#01AD5A"/>
<path d="M18.6697 8.54545H17.2571V15.4886H17.1694L12.359 8.54545H11.0387V18H12.4652V11.0661H12.5529L17.3587 18H18.6697V8.54545ZM23.6959 18.1431C25.2425 18.1431 26.3366 17.3814 26.6505 16.2273L25.344 15.9918C25.0947 16.6612 24.4946 17.0028 23.7098 17.0028C22.528 17.0028 21.7339 16.2365 21.697 14.87H26.7382V14.3807C26.7382 11.8185 25.2055 10.8168 23.599 10.8168C21.6231 10.8168 20.3213 12.3217 20.3213 14.5007C20.3213 16.7028 21.6047 18.1431 23.6959 18.1431ZM21.7016 13.8359C21.757 12.8295 22.4864 11.957 23.6082 11.957C24.6792 11.957 25.3809 12.7511 25.3856 13.8359H21.7016ZM29.7943 18H31.1977L32.6381 12.8803H32.7442L34.1846 18H35.5926L37.6746 10.9091H36.2481L34.8678 16.0934H34.7986L33.4136 10.9091H31.9871L30.593 16.1165H30.5237L29.1341 10.9091H27.7077L29.7943 18Z" fill="white"/>
</svg>
