<svg width="54" height="26" viewBox="0 0 54 26" fill="none" xmlns="http://www.w3.org/2000/svg">
<rect width="54" height="26" rx="4" fill="#F5813F"/>
<path d="M16.1953 11.0291H17.571C17.5295 9.51491 16.1907 8.41619 14.2702 8.41619C12.3729 8.41619 10.9187 9.50106 10.9187 11.1307C10.9187 12.4464 11.8604 13.2173 13.3793 13.6282L14.4964 13.9329C15.5075 14.2006 16.2876 14.533 16.2876 15.3732C16.2876 16.2965 15.4059 16.9059 14.1918 16.9059C13.093 16.9059 12.179 16.4165 12.0959 15.3871H10.6648C10.7571 17.0998 12.082 18.157 14.201 18.157C16.4215 18.157 17.7003 16.989 17.7003 15.3871C17.7003 13.6836 16.1815 13.0234 14.9812 12.728L14.0579 12.4879C13.3192 12.2987 12.3359 11.9524 12.3406 11.0476C12.3406 10.2443 13.0746 9.64879 14.2379 9.64879C15.3228 9.64879 16.0938 10.1566 16.1953 11.0291ZM21.3577 18.157C22.5303 18.157 23.1904 17.5614 23.4536 17.0305H23.509V18H24.857V13.2912C24.857 11.2276 23.232 10.8168 22.1056 10.8168C20.8222 10.8168 19.6404 11.3338 19.1787 12.6264L20.4759 12.9219C20.6791 12.4187 21.1961 11.9339 22.124 11.9339C23.015 11.9339 23.472 12.4002 23.472 13.2035V13.2358C23.472 13.739 22.955 13.7298 21.6808 13.8775C20.3374 14.0344 18.9617 14.3853 18.9617 15.9964C18.9617 17.3906 20.0097 18.157 21.3577 18.157ZM21.6578 17.049C20.8776 17.049 20.3144 16.6982 20.3144 16.0149C20.3144 15.2763 20.9699 15.0131 21.7686 14.907C22.2164 14.8469 23.2781 14.7269 23.4767 14.5284V15.4425C23.4767 16.2827 22.8073 17.049 21.6578 17.049ZM28.0758 8.54545H26.6955V18H28.0758V8.54545ZM32.9889 18.1431C34.5354 18.1431 35.6295 17.3814 35.9434 16.2273L34.637 15.9918C34.3877 16.6612 33.7876 17.0028 33.0028 17.0028C31.8209 17.0028 31.0269 16.2365 30.99 14.87H36.0312V14.3807C36.0312 11.8185 34.4985 10.8168 32.892 10.8168C30.9161 10.8168 29.6143 12.3217 29.6143 14.5007C29.6143 16.7028 30.8976 18.1431 32.9889 18.1431ZM30.9946 13.8359C31.05 12.8295 31.7794 11.957 32.9012 11.957C33.9722 11.957 34.6739 12.7511 34.6785 13.8359H30.9946ZM42.8762 12.6403C42.59 11.5369 41.7267 10.8168 40.1941 10.8168C38.5922 10.8168 37.4565 11.6616 37.4565 12.9173C37.4565 13.9237 38.0659 14.593 39.3954 14.8885L40.5957 15.1516C41.2789 15.304 41.5975 15.6087 41.5975 16.0518C41.5975 16.6012 41.0112 17.0305 40.1064 17.0305C39.28 17.0305 38.7491 16.6751 38.5829 15.978L37.2488 16.1811C37.4796 17.4368 38.5229 18.1431 40.1156 18.1431C41.8283 18.1431 43.0147 17.2337 43.0147 15.9503C43.0147 14.9485 42.3777 14.3299 41.0758 14.0298L39.9494 13.7713C39.1692 13.5866 38.8322 13.3235 38.8368 12.8434C38.8322 12.2987 39.4231 11.9109 40.2079 11.9109C41.0666 11.9109 41.4636 12.3864 41.6252 12.8619L42.8762 12.6403Z" fill="white"/>
</svg>
